<svg version="1" xmlns="http://www.w3.org/2000/svg" width="194.667" height="194.667" viewBox="0 0 146.000000 146.000000"><path d="M95.5 1.9c-8.1 2-17.9 8.6-23.7 15.9-1.5 1.9-2.8 2.2-9 2.3-8.9.1-11 .4-18.9 2.9-9.7 3.1-18.1 8.3-25.7 16C2.5 54.7-3.5 77.6 2.2 99.3c8.5 31.9 41.2 52.1 73.5 45.3 29.1-6.2 50.2-31.9 50.3-61.3 0-5.8.2-6.3 3.3-8.4 12.6-8.7 19.5-27.4 15.6-42.4-3.7-14.6-15.2-26.4-29.1-30.1-5.6-1.5-15.3-1.7-20.3-.5zM143 46c0 .5-.5 1-1.1 1-.5 0-.7-.5-.4-1 .3-.6.8-1 1.1-1 .2 0 .4.4.4 1zm-11 1.4c0 .2-.8 1-1.7 1.7-1.6 1.3-1.7 1.2-.4-.4 1.3-1.6 2.1-2.1 2.1-1.3zm4.5 3.6c.3.6-.1.7-.9.4-1.8-.7-2.1-1.4-.7-1.4.6 0 1.3.4 1.6 1zM121 52c0 .5-.2 1-.4 1-.3 0-.8-.5-1.1-1-.3-.6-.1-1 .4-1 .6 0 1.1.4 1.1 1zm4.2.7c-.6.3-1 .9-.7 1.4.4.5-.2.6-1.1.2-1-.4-1.5-.2-1.1.4.3.5-.1 1-1 1-1.1 0-.7-.7 1.3-2.3 1.5-1.3 3.1-2 3.4-1.7.3.3-.1.8-.8 1zm3.2.8c-.9 1.3-1.4 3-1.1 3.7.3.8.9.1 1.6-1.6.6-1.6 1.4-2.6 1.7-2.3.3.3.1 1.4-.5 2.5-1.5 2.9-1.4 3.7.4 2.2.8-.7 1.5-2 1.6-2.9.1-.9.4-.5.8.9s1.3 2.4 2 2.2c.7-.1 1.9.2 2.6.8 1.1.9 1.4.7 1.3-1.2-.1-1.3-.6-2.9-1.1-3.6-.6-.8-.6-1.2.1-1.2 1.2 0 2.4 2.9 1.6 4.1-.3.5 0 .9.7.9.8 0 .8.4-.1 1.5-.7.8-.9 1.5-.5 1.5s.2.7-.5 1.5c-1.6 1.9-3 1-2.5-1.5.2-1.1-.1-2-.6-2s-.9.7-.7 1.6c.2 1-.2 1.9-.9 2.1-.7.3-1-.4-.7-1.9l.5-2.3-1 2.2c-1.1 2.4-2.4 3.1-1.9 1 .2-.6-.2-1.4-.7-1.5-.6-.2-1.9-.8-3-1.4-1.5-.7-1.4-.4.4 1l2.4 2-2.6-.3c-1.5-.2-2.8.3-3.1 1.1-.5 1.2-.2 1.2 1.5.3 1.1-.6 2.3-.8 2.7-.5.3.3.1.6-.4.6-1.3 0-1.5 3.8-.3 4.5.5.4.6-.2.2-1.2-.6-1.6-.5-1.6 1-.4 1 .7 1.7.9 1.7.3 0-.6-.6-1.2-1.2-1.5-.7-.2-1-.8-.5-1.2.4-.5 1.8.2 3.2 1.5 1.4 1.3 2.5 1.9 2.5 1.3 0-.6-.5-1.3-1.2-1.5-.8-.3-.6-.7.4-1.1 2.9-1.1 2.7 1.9-.3 5.2-1.8 2-3.4 2.9-4.1 2.5-.7-.4-1-.4-.6.1 1.1 1.1-1.1 3.5-3.1 3.5-1.4 0-1.4-.2-.1-1 1.2-.8 1.2-1 .1-1-.9 0-1.2-.9-.9-3 .3-1.7 0-3-.5-3s-.4-.7.3-1.6c1.1-1.2 1.1-1.5 0-1.2-.8.2-1.4-.2-1.5-.7 0-.6-.4-1.6-.8-2.3-.5-.6-.5-1.7-.2-2.2.3-.6.1-1-.6-1s-.9-.3-.6-.6c.4-.4 1.4-.1 2.4.7 1.5 1.2 1.6 1.2.9-.6-.4-1.1-.4-1.6 0-1.2.4.4 1.5-.7 2.5-2.3 1.1-1.7 2.1-3 2.4-3 .3 0-.2 1.1-1.1 2.5zm12.3-.3c-.3.8-.6.5-.6-.6-.1-1.1.2-1.7.5-1.3.3.3.4 1.2.1 1.9zm-3.7 2.7c0 .4-.6.8-1.4.8-.8 0-1.2-.6-.9-1.4.5-1.3 2.3-.9 2.3.6zm-100.5 27c.3.5.2 1.2-.3 1.5-.5.3-.9-.1-.9-.9 0-1.7.3-1.9 1.2-.6zm72 4c.3.5.2 1.2-.3 1.5-.5.3-.9-.1-.9-.9 0-1.7.3-1.9 1.2-.6zm-85.5.7c0 .8-1.9 1.3-2.4.6-.3-.5.1-.9.9-.9s1.5.2 1.5.3zm34 .4c0 .5-.2 1-.4 1-.3 0-.8-.5-1.1-1-.3-.6-.1-1 .4-1 .6 0 1.1.4 1.1 1zm8-.4c0 .8-1.9 1.3-2.4.6-.3-.5.1-.9.9-.9s1.5.2 1.5.3zm3.5 1.2c-.3.3-1.1 0-1.8-.7-.9-1-.8-1.1.6-.5 1 .3 1.5.9 1.2 1.2zm9-.8c-.3.5-1.2 1-1.8 1-.7 0-.6-.4.3-1 1.9-1.2 2.3-1.2 1.5 0zm9.5 2c0 .5-.5 1-1.1 1-.5 0-.7-.5-.4-1 .3-.6.8-1 1.1-1 .2 0 .4.4.4 1zm3.5 2c.1 1-.2 1.7-.6 1.4-.4-.2-.7-1.3-.6-2.4.2-2.3 1-1.7 1.2 1zm4.5-2c0 .5-.5 1-1.1 1-.5 0-.7-.5-.4-1 .3-.6.8-1 1.1-1 .2 0 .4.4.4 1zM6.1 93.3c-1 .9-1.1.8-.5-.6.3-1 .9-1.5 1.2-1.2.3.3 0 1.1-.7 1.8zm6.4-1.4c.3.5.2 1.2-.3 1.5-.5.3-.9-.1-.9-.9 0-1.7.3-1.9 1.2-.6zm17.6 1.4c-1 .9-1.1.8-.5-.6.3-1 .9-1.5 1.2-1.2.3.3 0 1.1-.7 1.8zm8 0c-1 .9-1.1.8-.5-.6.3-1 .9-1.5 1.2-1.2.3.3 0 1.1-.7 1.8zM49 91.4c0 .2-.7.7-1.6 1-.8.3-1.2.2-.9-.4.6-1 2.5-1.4 2.5-.6zm8.5.6c.3.6-.1.7-.9.4-1.8-.7-2.1-1.4-.7-1.4.6 0 1.3.4 1.6 1zm7.5-.6c0 .2-.7.7-1.6 1-.8.3-1.2.2-.9-.4.6-1 2.5-1.4 2.5-.6zm3.7.3c-.4.3-.2 1.1.3 1.8.7.8.6 1.2-.3 1.2-.7 0-1.4-.9-1.4-1.9-.1-1 .3-1.8.9-1.8.6 0 .8.3.5.7zm8.3-.3c0 .3-.4.8-1 1.1-.5.3-1 .1-1-.4 0-.6.5-1.1 1-1.1.6 0 1 .2 1 .4zm5.4 1.2c.3.8.2 1.2-.4.9-.6-.3-1-1-1-1.6 0-1.4.7-1.1 1.4.7zm38.3-.1c0 .8-.4 1.2-.9.9-.5-.3-.6-1-.3-1.5.9-1.3 1.2-1.1 1.2.6zM10 93.4c0 .2-.8 1-1.7 1.7-1.6 1.3-1.7 1.2-.4-.4 1.3-1.6 2.1-2.1 2.1-1.3zm12 0c0 .2-.8 1-1.7 1.7-1.6 1.3-1.7 1.2-.4-.4 1.3-1.6 2.1-2.1 2.1-1.3zm20 0c0 .2-.8 1-1.7 1.7-1.6 1.3-1.7 1.2-.4-.4 1.3-1.6 2.1-2.1 2.1-1.3zM52.5 95c-2 2.2-3.5 2.6-3.5.9 0-.5.4-.8.9-.5.5.3 1.4-.1 2.1-.9.7-.8 1.5-1.5 1.8-1.5.3 0-.3.9-1.3 2zm20.9-1.2c.3.5-.1.9-.9.9s-1.2-.4-.9-.9c.3-.4.7-.8.9-.8.2 0 .6.4.9.8zm41.6-.4c0 .2-.7.7-1.6 1-.8.3-1.2.2-.9-.4.6-1 2.5-1.4 2.5-.6zm-88.3 2.1c0 .8-.4 1.5-.9 1.5-1 0-1.1-1.4-.1-2.3.9-1 1-.9 1 .8zm8 0c0 .8-.4 1.2-.9.9-.5-.3-.6-1-.3-1.5.9-1.3 1.2-1.1 1.2.6zm11.1.2c-.6.7-1.2 1.3-1.3 1.3-.2 0-.5-.6-.8-1.3-.3-.7.3-1.3 1.4-1.3 1.3 0 1.5.3.7 1.3zm12.5-.2c-.2.7-1 1.2-1.7 1.2s-1.3-.5-1.3-1.2c0-.6.8-1.1 1.8-1.1.9 0 1.5.5 1.2 1.1zm7.1 1.7c.4-.3.4.2 0 1.1-.3 1-.7 1.7-.8 1.5-.1-.2-1-1.7-2-3.3-1.7-3-1.7-3 .2-.8 1.1 1.2 2.3 1.9 2.6 1.5zm12.3-2.6c-.3.3-1.2.4-1.9.1-.8-.3-.5-.6.6-.6 1.1-.1 1.7.2 1.3.5zm3.1 1.9c-.3.3-.9-.2-1.2-1.2-.6-1.4-.5-1.5.5-.6.7.7 1 1.5.7 1.8zm21.9-1c0 .8-.4 1.2-.9.9-.5-.3-.6-1-.3-1.5.9-1.3 1.2-1.1 1.2.6zm-90.4.9c.4 1.1.1 1.3-1 .9-1.2-.5-1.4-.3-.8.7.5.9.4 1.1-.4.6-.9-.6-.9-1.1 0-2.2 1.4-1.7 1.6-1.7 2.2 0zm6 .1c.4.8.1 1.7-.5 2.1-.7.5-.8.2-.3-.6.6-1 .4-1.2-1-.6-1.5.5-1.6.4-.5-.9 1.5-1.9 1.6-1.9 2.3 0zm14.1.1c.3.8.2 1.2-.4.9-.6-.3-1-1-1-1.6 0-1.4.7-1.1 1.4.7zm4.9-.1c-.3.9-.8 1.4-1 1.1-.3-.3-.2-.9.2-1.5.9-1.6 1.5-1.3.8.4zm49.7-.3c0 .4-.4.8-.9.8-.6 0-1.2-.4-1.5-.8-.3-.5.1-.9.9-.9s1.5.4 1.5.9zm4 0c0 .4-.4.8-.9.8-.6 0-1.2-.4-1.5-.8-.3-.5.1-.9.9-.9s1.5.4 1.5.9zm5.5.6c-.3.3-1.1 0-1.8-.7-.9-1-.8-1.1.6-.5 1 .3 1.5.9 1.2 1.2zm14 0c-.3.3-1.1 0-1.8-.7-.9-1-.8-1.1.6-.5 1 .3 1.5.9 1.2 1.2zM9.6 101.7c-.3.4-.6.1-.6-.6s-.4-1-.8-.7c-.4.2-.9-.5-.9-1.6-.2-2.1-.2-2.1 1.4.1.8 1.2 1.2 2.5.9 2.8zm10.6-2.4c-1.5 1.7-.6 2.8 1.6 2 1.4-.5 1.5-.3.5.7-2 2.1-4.6-.5-3-3 .6-1.1 1.3-1.7 1.6-1.5.2.3-.1 1.1-.7 1.8zm19.9.4c-1.2 2-1.4 1.4-.5-1.2.4-.9.9-1.4 1.1-1.1.3.2 0 1.3-.6 2.3zm6.3-1.5c-.5.8-.1.9 1.2.4 1.4-.5 1.6-.4.7.5-1.3 1.3-3.7.3-2.8-1.2.4-.5.8-.9 1.1-.9.3 0 .2.5-.2 1.2zm13.7 3.1c-.7.7-.7 1.4 0 2.3.7.9.5 1.4-.8 1.8-1 .3-1.9 1.6-2 2.7l-.2 2.2 2-2.2c1.4-1.4 2.7-2 4-1.6 1.1.4 1.9.2 1.9-.4 0-.6-.6-1.1-1.4-1.1-1.5 0-2.8-2.4-1.9-3.4.4-.3 1.1-.6 1.7-.6.6 0 .5.4-.3.9-1.1.7-1 1.1.7 2 1.4.7 2.3.8 2.7.1.3-.5.1-1-.4-1-.6 0-1.1-.5-1.1-1.1 0-.8.5-.8 1.5.1 1.2 1 1.8 1 3 0 1-.9 1.5-.9 1.5-.1 0 .6-.4 1.1-.8 1.1-.5 0-.9.7-.9 1.5 0 1.7 0 1.7 2.1.9.9-.3 1.3-1 1-1.5-.3-.5 0-.9.6-.9.7 0 .9.8.4 2.2-.6 2-.5 2.1.9.9.9-.7 1.4-1.8 1-2.5-.3-.6-.3-.8.2-.4.4.4 1.3 0 2-.9 1.1-1.5 1.4-1.4 3.3.5 1.1 1.1 2.3 1.7 2.7 1.4.3-.4.3.2 0 1.3-.5 1.5-.1 1.3 1.7-.8 1.3-1.5 2.8-2.7 3.3-2.7.6 0 .3.4-.5 1-1.2.7-1.2 1.2 0 3.4l1.3 2.6 2.9-3.1c1.6-1.6 3.3-2.7 3.8-2.4.5.3 1.1.1 1.5-.5.3-.5-.2-1-1.1-1-1 0-1.5-.3-1.1-.6 1.2-1.2 3.7.5 3.1 2.1-.4.9-1.2 1.4-2 1.1-.7-.3-1.8.1-2.4.8-.8 1.1-.3 1.4 3.1 1.2 2.8-.1 4.5-.7 5.5-2 .8-1.1 1.4-1.5 1.4-1 0 .6-.5 1.5-1.2 2.2-.7.7-.8 1.2-.2 1.2 1.6 0 3.3-2.1 2.8-3.5-.3-.7 0-1.6.6-2 .6-.4 1.1-.1.9.6-.3 2.7.1 4 1.1 3.4.6-.3 1-.1 1 .5s.4.9 1 .5c.5-.3.7-1.2.4-1.9-.7-1.8 1.2-3 2.2-1.5.4.8.3.9-.4.5s-1.2-.2-1.2.3c0 1.2 2.3 1.5 3.3.4.4-.3.2-1.2-.4-2-.7-.8-.8-1.3-.1-1.3.5 0 1.3.7 1.6 1.6.6 1.5.8 1.5 3.2-.1 1.4-.9 2.8-1.4 3.2-1.1.3.3 0 .6-.7.6s-1 .4-.6.9c.3.5 0 1.3-.6 1.6-.5.4-.8 1.3-.5 2.1.3.7.1 1.6-.4 1.9-.4.3-.7-.6-.6-2 .3-2-.1-2.4-1.7-2.1-1.2.1-2.3.8-2.5 1.4-.2.7.3 1 1.2.6.9-.3 1.6-.1 1.6.6 0 .6-.4.8-1 .5-.5-.3-1-.2-1 .4 0 .5 1 1.3 2.2 1.7 2.1.6 2.1.7-.5 2.1-3.1 1.5-3.6 2.5-.9 1.7 1.3-.4 1.4-.3.4.4-.8.5-1.2 1.2-1 1.4 1 1.6-13.7 17.2-15.3 16.3-.5-.4-.9 0-.9.8 0 2.2-14.4 9.2-22.5 11.1-8.4 1.8-23.8 1.5-30.5-.7-5.9-2-11.3-4.3-12.3-5.4-.5-.4-1.2-.8-1.5-.8-1.6-.1-6.1-3.8-5.6-4.6.3-.5.2-.9-.3-.8-1.7.4-4.3-1.4-4.3-2.9 0-.8-.3-1.3-.6-.9-1.6 1.6-9.4-8.6-8.7-11.3.3-1.2 0-2-.6-2-.7 0-.9.5-.5 1.2.6 1 .3.9-.8 0-1-.8-1.4-2-1.1-2.9.5-1.2.3-1.4-.7-.8-.9.5-1.1.4-.6-.3.4-.7.1-1.2-.6-1.2-.9 0-.9-.3.2-1 1.3-.9.7-1.4-1.2-1.1-.4 0-.3-1 .3-2.3 1-2 3.7-2.8 5.9-1.6 1.3.7 3.6.5 4.2-.4.4-.6 1-.7 1.5-.3.4.5.1 1.2-.7 1.7-.8.6-1.3 1-1 1.1.3 0 1.3.2 2.3.4 1.4.3 1.7-.1 1.2-1.3-.5-1.3-.4-1.4.6-.5.9.9.8 1.7-.4 3.7-1.6 2.3-1.6 2.5.2 2.3 1.9-.1 2.1-.6 2.2-5.5 0-1.2.4-2 .9-1.7.5.3 1.1.1 1.5-.5.3-.5.1-1-.6-1s-.9-.3-.5-.7c.4-.5 2 .8 3.6 2.7 2.6 3.1 2.9 3.2 2.7 1.2-.1-1.2-.5-2.2-.9-2.2s-.8-.5-.8-1.1c0-.8.5-.8 1.5.1.9.8 1.5.9 1.5.2 0-.6-.4-1.4-1-1.7-.5-.3-1-1.2-.9-1.8 0-.9.2-.8.6.1.2.6.8 1 1.2.8.4-.3.7.4.8 1.4.1 1.1-.3 2.3-.9 2.6-.6.4-.5 1 .3 1.5 2.1 1.3 2.9 1.1 2.3-.6-.4-.8-.1-1.5.6-1.5.6 0 .9.4.6.9-.3.5.1 1.4.9 2.1 1.3 1.1 1.5.9 1.3-1.1-.2-1.3-1.2-2.9-2.3-3.6-2.4-1.5-1.1-1.7 1.5-.3 1.1.6 1.7 1.6 1.4 2.3-.3.8.4 1.3 1.7 1.4 1.7.2 1.8-.1.8-1.3s-.9-1.3.5-.8c1.1.4 1.5 1.3 1.1 2.5-.5 1.4-.2 1.7.9 1.3.9-.3 1.6-.1 1.6.6 0 .6-.4.8-1 .5-1.9-1.2-1 .7 1.2 2.4 1.4 1.2 1.7 1.8.7 1.9-2.3.2-4.3.7-5.6 1.5-.6.4-1.5.3-1.8-.3-.4-.6-.3-.9.2-.8.4.2.8-.1.8-.7 0-.5-.8-1-1.7-1-1.3-.1-1.5.2-.7 1.6 1.2 2.3 1.2 2.6-.6 2.6-1.1 0-1.4-.7-.9-2.1.4-1.5.3-1.7-.4-.8-.7 1.1-1 1-1.6-.3-.4-1-1.2-1.5-2.2-1.1-1 .4-1.3.2-.8-.6.4-.6.3-.8-.3-.5-.6.4-1-.1-.9-1 0-.9-.6-1.8-1.4-2.1-1.3-.5-1.3-.3-.1 1.1 1.1 1.4 1.1 1.7 0 1.8-1 0-1.1.2-.1.6.6.2.9.9.6 1.4-.3.6-1.2.2-2.1-.8-.8-1-1.1-1.2-.7-.4.5 1 .3 1.2-.7.7-.8-.4-.6-.1.4.7 1.5 1.2 1.5 1.5.3 2-.9.4-1.8.2-2.1-.3-.3-.4-1.6-.7-3-.6-1.4.2-2.2-.1-1.8-.7.4-.6.1-.7-.7-.2-.9.6-1.1.4-.5-.5.5-.9.4-1.1-.4-.6-.6.4-.9 1.2-.6 1.7.4.5.1.9-.5.9-.7 0-1-.7-.6-1.8.5-1.5.4-1.4-.9.2-1.4 1.9-1.1 4.1.5 3.1.5-.3 1.1-.1 1.4.4.4.5-.3 1.3-1.4 1.6-1.7.5-1.9 1-.9 2.1.6.8 1.7 1.4 2.3 1.3.7 0 .6-.2-.1-.6-.7-.2-1.3-.9-1.3-1.4 0-.6.5-.7 1-.4 1 .6 1.4-.8 1-3.4-.1-1.3.1-1.3 1.4-.2 1.3 1.1 1.9 1.1 3.2 0 1.3-1.1 1.5-1.1 1.4.2-.4 2.6 0 4 .9 3.5.9-.6 2.6 2.2 2.2 3.7-.1.5.3.6.9.2.6-.3.8-1.1.5-1.6-.4-.5-.1-.9.4-.9.6 0 1.1-.5 1.1-1.1 0-.8-.5-.8-1.5.1-1.6 1.3-1.8 1-.9-1.4.8-2.1 4.6-.2 4.2 2.2-.2 1 .3 1.7 1.2 1.7 1 0 1.5-.9 1.4-2.8-.1-3.2 2.4-3.4 4.3-.2.7 1.1 1.2 1.4 1.3.7 0-.7.5-1 1-.7 1 .6 1.4-.8 1-3.4-.1-1.3.1-1.3 1.4-.2 1.3 1.1 1.9 1.1 3.3 0 1.4-1.2 1.6-1.2 1.1.2-.3.9-.2 2.2.3 3 .7 1.2.9 1.2 1-.1.1-.8.1-1.8 0-2.2 0-.4.6-.5 1.4-.1 1.1.4 1.3.9.5 1.8s-.6 1.5.7 2c1 .5 2.4.7 3 .6.8-.1 1 .5.7 1.6-.5 1.5-.4 1.5.4.3 1.3-1.8.6-3.1-1.5-2.8-.9.2-1.8-.2-1.9-.7-.3-.6 1.7-1 4.6-1 2.9 0 4.9.4 4.6 1-.1.5-1.2.9-2.2.7-1.5-.2-1.6-.1-.5.7 1 .6 2.2.4 3.8-.6 2.3-1.5 2.6-1.5 5.1 1.3 1.5 1.7 2.6 3.9 2.5 4.9-.3 1.9-.3 1.9.6 0 .7-1.4.4-2.4-.8-3.4-1.2-1-1.3-1.5-.3-1.8.6-.3 1.2-.9 1.2-1.5s-.6-.6-1.5.2-1.5.9-1.5.2c0-.6.5-1.4 1-1.7.8-.5.7-1.1 0-2-.9-1.1-.7-1.4.9-1.2 1.2.1 2 .6 2 1.2-.3 2.4.2 3.6 1.1 3 .6-.3 1-.1 1 .6s.3.9.7.5c.5-.4-.1-1.4-1.1-2.2-1.7-1.2-1.7-1.4-.4-1.4 2.2 0 3.3 1.9 3 5-.2 2 .1 1.7 1.4-1.2.9-2.1 2-3.5 2.6-3.2.5.3.4 1.2-.3 2-.9 1.1-.9 1.8-.1 2.6.7.7 1.2.8 1.2.3 0-.6.5-.3 1.1.5.9 1.3 1 1.2.5-.3-.3-.9 0-1.7.6-1.7s.8-.3.5-.6c-.4-.4-1.3-.1-2.2.6-1.8 1.5-2-.1-.3-1.8 1-1 1-1.5-.2-2.2-.8-.5-1.8-.6-2.3-.3-.5.3-.7 0-.5-.8.3-.8 1.2-1.2 1.9-1 .8.2 2 .4 2.7.4.7 0 1 .8.6 1.9-.4 1.2 0 1.8 1.1 1.8s1.5.5 1.2 1.4c-.3.7 0 1.9.6 2.6.9 1 .8 1.2-.5.7-1-.4-1.8-.2-1.8.3 0 1.1 2.3 1.3 3.3.4.4-.4.3-1.2 0-1.8-1.1-1.8-1-4.7.1-4.3.6.3 1 1 .8 1.7-.2.7.4 2 1.3 3 .8.9 1.2 2 .8 2.5-.5.4-.2.5.5.1.9-.6 1-1.1.3-2-1.1-1.3-.5-2.6 1.1-2.6.5 0 .6.5.3 1-.3.6 0 1.3.9 1.6.8.3 1.2 1.3.9 2.2-.4 1.5-.3 1.5.6.2.8-1.1.7-1.8-.6-2.8-.9-.6-1.3-1.2-.8-1.2s.4-.5-.3-1.2c-.8-.8-1.5-.8-2.7.2-1 .8-1.5.9-1.5.2 0-.6.9-1.6 1.9-2.2 1.6-.8 2.3-.5 3.9 1.5 1.9 2.4 2 2.4 3.6.6 1-1 2.7-1.9 3.9-1.8 1.2 0 3.5-.3 5-.6 2.2-.5 2.8-.3 2.3.8-.3 1 0 1.2 1.1.8 1.3-.5 1.4-.3.4 1.5-.7 1.2-1 2.2-.8 2.2 1 0 3.9-5.4 4.2-7.6.2-2 0-2.2-1.9-1.3-2 1-2 1-.2-.5 1.1-.9 1.5-1.6 1-1.6-.6 0-1.6.6-2.4 1.2-1.1 1-1.1.9 0-.6 1.2-1.6 1.3-1.8.1-1.1-1 .6-1.2.4-.6-.4.6-1 .3-1.1-1.1-.3-1.1.5-2.7.8-3.6.7-.9-.2-1.5.2-1.4.8.2.7.1.8-.2.4-.2-.4-1 0-1.7 1-.9 1.2-1.7 1.5-2.4.8-1.8-1.8-1.7-3.9.3-4 1.1 0 2.2-.7 2.4-1.5.5-1.3.3-1.3-1.1-.1-1.4 1.1-1.7 1.1-1.7 0 0-.8-.6-.6-1.6.7-.8 1-1.3 1.4-1 .8.3-.6-.1-1.1-.9-1.1s-1.2.5-.9 1.1c.3.6-.1.3-.9-.7-1-1.2-1.7-1.4-2.2-.8-.3.6-.2 1.1.3 1.1s.9.7.9 1.5-.4 1.2-.8.9c-.4-.2-1 .2-1.3.8-.3.7-.3.2 0-1.1.4-1.5.2-2.1-.4-1.7-.6.4-1.6-.3-2.2-1.4-.6-1.1-1.5-2-2.1-2-.6 0-.1 1.3 1.1 3 2.3 3.2 2 5.2-.8 4.4-1.3-.5-1.4-.4-.4.4 1.1.7 1 1.1-.4 1.6-.9.3-1.9.4-2.2.1-.3-.3 0-.5.6-.5.7 0 1.1-.3 1.1-.8-.1-.4 0-.9.1-1.2.8-2.2.5-4.7-.7-4.3-.7.3-1.1.9-.8 1.3.3.4-.2 1.3-1 2s-1.5.8-1.5.3c0-.6-1-1-2.2-.9-1.4.1-2.2-.4-2.1-1.2.2-.6-.2-1.2-.7-1.2-1.4 0-1.3 1.3.3 2.9 1 1.1.9 1.2-.2.6-.9-.5-1.2-.4-.8.2.3.5-.4.9-1.5.8-1.2-.1-2.4-.7-2.6-1.4-.4-1.1-.6-1-1.3 0-.7 1.1-.9 1.1-.9.1 0-.7-.5-1-1.2-.6s-.8.3-.4-.4c.5-.8.1-1-1-.5-1.3.5-1.5.2-.9-1.8.7-2.3.7-2.3-.8-.4-1.1 1.4-1.2 2.2-.4 2.7.6.4.8 1 .4 1.5-.9.9-2.8-1.7-2.1-2.9.6-1-1-1.1-1.9-.1-.4.3-.2 1.2.4 1.9.8 1 .3 1.7-2 2.8-3.8 2-4.7 2-3.1.1.7-.8 1.7-1.2 2.2-.9.6.4.5-.3-.1-1.4-1.3-2.5-3.1-3.8-3.1-2.2 0 .6-.4.9-.9.6-.5-.3-1.4.1-2.1.9-.9 1-.9 1.5-.1 1.5.6 0 1.1-.5 1.1-1.2 0-1.5 1.3-.1 1.6 1.7.1.8-.6 1.3-1.7 1.2-1.9-.1-2.1-.4-2.2-3.5-.1-1.7-1.5-3.2-3.1-3.2-.5 0-.4.6.1 1.2 1.8 2.3 2.3 4.7.9 4.2-.7-.3-1.3-1-1.4-1.7 0-.7-.3-2.3-.6-3.6-.6-2.8 1-6.4 2.5-5.5.6.3.8 1.2.5 1.9-.3.9.2 1.3 1.5 1.2 1.9-.1 2.3-.9 2-3.6-.2-.7.3-1 .9-.6.6.3.9 1.4.8 2.2-.2.9.3 1.8 1 2 .8.3 1-.2.6-1.4-.5-1.5-.4-1.5.5-.3.5.8 1.3 1.1 1.7.7.4-.3.1-1.3-.5-2.1-.7-.8-1.1-2.3-.8-3.3.4-1.4.5-1.3.6.5.1 1.3.5 2 1.1 1.7.6-.4.8-1.6.5-2.8-.5-2-.5-2 .6-.4.8 1.4.8 2.2 0 3zm13.2-3.6c-.7.2-1.9.2-2.5 0-.7-.3-.2-.5 1.2-.5s1.9.2 1.3.5zm7 1.3c.9 1.1 1.3 2 .7 2-.5 0-1.4-.9-2-2-.6-1.1-.9-2-.8-2 .2 0 1.1.9 2.1 2zm14.3-.8c.5.7.3.8-.6.3-.9-.5-1-.2-.5 1.4.4 1.4.1 2.3-.9 2.7-.9.3-1.4 1-1.1 1.4.9 1.4-1.6 2.3-2.8 1.1-.9-.9-.8-1.1.6-.5 1 .3 1.7.3 1.6-.2-.4-2.2.2-3.5 1.3-2.8.8.5.9.2.5-1-1.1-2.7.5-4.7 1.9-2.4zm3.9-.2c-.3.5-1.2 1-1.8 1-.7 0-.6-.4.3-1 1.9-1.2 2.3-1.2 1.5 0zm2.1 1.4c0 1.4-.5 2.1-.9 1.7-.4-.4-.5-1.5-.1-2.4.9-2.4 1.2-2.1 1 .7zM25 99c-.8.5-1.9 1-2.5 1-.5 0-.3-.5.5-1s2-1 2.5-1c.6 0 .3.5-.5 1zm18.6 2.7c-.3.4-.6.1-.6-.6s-.4-.9-1-.6c-.6.4-.7-.1-.3-1.1.6-1.5.7-1.5 1.5.1.6.9.7 1.9.4 2.2zM53 99c.8.5 1.1 1 .5 1-.5 0-1.7-.5-2.5-1s-1-1-.5-1c.6 0 1.7.5 2.5 1zm32-.6c0 .3-.4.8-1 1.1-.5.3-1 .1-1-.4 0-.6.5-1.1 1-1.1.6 0 1 .2 1 .4zm17.7 2.8c-.3.7-.5.2-.5-1.2s.2-1.9.5-1.3c.2.7.2 1.9 0 2.5zm8-.6c-.5.5-5.7-1.3-5.7-2 0-.3 1.4 0 3.1.6 1.6.6 2.8 1.2 2.6 1.4zM113 99c.8.5 1.1 1 .5 1-.5 0-1.7-.5-2.5-1s-1-1-.5-1c.6 0 1.7.5 2.5 1zm-97 1c.8.5 1.2 1.1 1 1.4-.3.2-1.4-.2-2.4-1-2.2-1.5-1-1.9 1.4-.4zm13-.6c0 .3-.4.8-1 1.1-.5.3-1 .1-1-.4 0-.6.5-1.1 1-1.1.6 0 1 .2 1 .4zm40 1c-.7.7-1.3.7-2 0-.6-.6-.3-1 1-1s1.6.4 1 1zm6 .1c0 .8-.2 1.5-.4 1.5s-.6-.7-1-1.5c-.3-.8-.1-1.5.4-1.5.6 0 1 .7 1 1.5zm43.6-.3c.4.7.3.8-.4.4s-1.2-.2-1.2.5-.3 1-.6.6c-.6-.5.3-2.7 1.1-2.7.2 0 .7.5 1.1 1.2zm-29.3.5c-.7.2-1.9.2-2.5 0-.7-.3-.2-.5 1.2-.5s1.9.2 1.3.5zm-83.2 3.5c-1 1.1-1.1.9-.5-.6.6-1.5.4-1.7-.6-1.1-.9.6-1.1.4-.5-.4.5-.9 1-1 1.8-.2s.7 1.4-.2 2.3zm8.4-2.2c.8 1.3-.5 1.3-2.5 0-1.3-.8-1.3-1 .2-1 .9 0 2 .4 2.3 1zm31.3 1c-.7 1-1.4 1.8-1.5 1.6-.6-.6.9-3.6 1.8-3.6.5 0 .4.9-.3 2zm39.2-1c0 .5-.4 1-1 1-.5 0-1-.5-1-1 0-.6.5-1 1-1 .6 0 1 .4 1 1zm16.5 2c-.3.5-1.1 1-1.6 1-.6 0-.7-.5-.4-1 .3-.6 1.1-1 1.6-1 .6 0 .7.4.4 1zm-3.7 9c1.7 2.1 2.2 2.2 3.6 1.1.9-.7 1.6-1 1.6-.5s.6.2 1.3-.6c.7-.8 2.1-1.6 3.2-1.7 1.1-.1 1.4 0 .8.3-1 .4-.9.9.2 2 .7.8 1.8 1.3 2.3 1.2 1-.3 1.2.1 1.2 2.4 0 .7-.6.6-1.7-.4-1-.8-2.9-1.4-4.3-1.2-1.4.3-3.8.6-5.5.8-1.6.2-3.1.8-3.3 1.5-.4 1.3-2.2 1.5-2.2.2 0-.5.9-1.3 2.1-1.6 1.1-.4 1.8-.9 1.6-1.2-.3-.2-1.5 0-2.6.7-1.2.6-2.7.7-3.4.3-1.8-1.1-3.7-1.2-3.7-.2 0 .6-.4.7-1 .4-.6-.4-.5-1.1.3-2 .6-.7 1.4-1.1 1.6-.9.7.7 4.1-1.7 3.6-2.6-1.2-1.9 2.5-.2 4.3 2zm-68.1-.5c-.4.8-.1 1.7.5 2.1.7.4.8.3.4-.4-.5-.8-.1-1 1.1-.6 1.5.5 1.5.4.3-.5-.8-.5-1.1-1.3-.7-1.8.5-.4 1.2-.1 1.7.7.7 1.1.5 1.9-.7 2.7-1.2.9-1.3 1.3-.3 1.3.7 0 1.1.3.8.6-.4.3-1.8-.2-3.1-1.1-2.2-1.4-2.6-1.4-3.4-.1-.6 1.1-1.3 1.2-2.3.6-1.3-.8-1.3-1 .1-1 .9 0 2.4-.9 3.4-2 2.1-2.4 2.9-2.6 2.2-.5zm27.3-.6c0 .6-.4 1.2-.8 1.5-.5.3-.9-.1-.9-.9s.4-1.5.9-1.5c.4 0 .8.4.8.9zM45.5 113c-.3.5-1.2 1-1.8 1-.7 0-.6-.4.3-1 1.9-1.2 2.3-1.2 1.5 0zm21-.1c-.3.5-.1 1.2.5 1.6 1.7 1.1.1 2.4-2.5 2.1-3-.3-3.9-1.1-3-2.6.5-.8 1-.8 2 0 .9.8 1.4.6 1.9-.5.3-.8.8-1.5 1.1-1.5.4 0 .4.4 0 .9zm10.5 3.3c0 .6-.6.5-1.5-.2-.8-.7-1.5-1.4-1.5-1.6 0-.2.7-.1 1.5.2.8.4 1.5 1.1 1.5 1.6zm-36-.8c0 .2-.7.6-1.5 1-.8.3-1.5.1-1.5-.4 0-.6.7-1 1.5-1s1.5.2 1.5.4zm-8 3.6c0 .5-.5 1-1.1 1-.5 0-.7-.5-.4-1 .3-.6.8-1 1.1-1 .2 0 .4.4.4 1z"/><path d="M123 60c0 .5.9.8 2 .7 2.1-.1 1.8-1-.5-1.3-.8-.1-1.5.2-1.5.6zM137.3 61.5c0 .8.4 1.2.9.9.5-.3.6-1 .3-1.5-.9-1.3-1.2-1.1-1.2.6zM130.4 68.6c-1.8 1.4-1.8 1.5.4.4 1.2-.6 2.2-1.3 2.2-1.5 0-.8-.5-.6-2.6 1.1zM77.9 102.8c-.1.4-.3 2.3-.4 4.2-.1 3.2.1 3.5 2.6 3.6 2.2.1 2.6-.2 2.4-2-.4-3.3-1.5-5.4-3.1-6-.8-.3-1.5-.2-1.5.2zm2.6 2.2c.3.5.1 1-.4 1-.6 0-1.1-.5-1.1-1 0-.6.2-1 .4-1 .3 0 .8.4 1.1 1zm-.8 3.5c0 .8-.4 1.2-.9.9-.5-.3-.6-1-.3-1.5.9-1.3 1.2-1.1 1.2.6zM25 105c-.6 1.1-.7 2-.3 2 .4 0 .1.5-.7 1-1.2.7-1.1.9.6.8 1.6-.2 2.1-.9 2.2-3 .1-3.3-.4-3.5-1.8-.8zM47.6 104.6c-.8 2.1-.8 2.1 1.2 2.9 1.3.5 1.4.3.5-.6-.6-.6-.9-1.8-.6-2.5.3-.8.3-1.4 0-1.4s-.8.7-1.1 1.6zM9.3 104.7c-.7.3-1.3.9-1.3 1.4 0 .6.6.9 1.3.8 2.4-.3 3.7.1 3.7 1.2 0 .8-.4.8-1.4 0-1-.9-1.5-.8-1.9.3-.4.9-.2 1.8.4 2.2.6.3.8 1.2.5 2-.8 2 0 1.7 2.4-.9 1.2-1.2 3.1-2.2 4.2-2.2 1.2 0 2.2-.6 2.4-1.3.1-.7 0-.8-.3-.2-.3.7-1.1.3-2-.9-.8-1.2-1.8-1.9-2.3-1.6-.5.3-1.8.2-2.7-.3-1-.5-2.4-.7-3-.5zm5.7 3.2c-1.4 2.8-3 3.5-4.3 2.2-.9-.9-.8-1.1.5-.6 1.1.4 2-.1 2.8-1.4.6-1.2 1.3-2.1 1.6-2.1.2 0 0 .9-.6 1.9zM66.9 104.2c-.1.2-.2 1.5-.3 2.9-.1 1.8.2 2.5 1.1 2.2.7-.3 1-1 .6-1.6-.3-.6-.1-.7.5-.3.6.4.8 1.4.5 2.3-.4 1-.2 1.4.5.9.6-.3 1.5.2 2.1 1.1.6 1.1 1.1 1.3 1.1.5 0-.7.5-1 1.2-.6.7.5.8.3.4-.5-.5-.7 0-2.1 1-3.2s1.2-1.9.5-1.9c-.6 0-1.4.7-1.8 1.6-.5 1.2-.7 1.3-1.4.2-.4-.7-1.4-1.3-2.1-1.4-4.3-.3-4.4-.4-2.8-1.4 1-.6 1.1-1 .3-1-.7 0-1.4.1-1.4.2zM73 110c0 .5-.2 1-.4 1-.3 0-.8-.5-1.1-1-.3-.6-.1-1 .4-1 .6 0 1.1.4 1.1 1zM38.5 107c-.6 1.9-.9 2-1.6.8-.9-1.7-5.1-1.7-5.7 0-.2.7.1 1.2.8 1.2.6 0 .8-.5.4-1.2s-.3-.8.5-.4c.6.4.9 1.1.6 1.6-.3.5-.1 1.1.5 1.5.5.3 1 .2 1-.4 0-1.4 4.2-1 6 .5 2.9 2.4 3.6 0 .9-3l-2.7-2.8-.7 2.2zM51.2 108.4c.2 2.2.3 2.2 2.9.7 3.1-1.8 3-2.3-.5-2.6-2.1-.3-2.5.1-2.4 1.9zM103 108.5c-1.3 1.4-3 2.3-3.7 2.1-.7-.3-1 .1-.6 1 .7 1.9 1.6 1.8 3-.5.8-1.3 2-1.8 3.4-1.6 1.6.3 1.9 0 1.5-1.2-.5-1.3-.4-1.4.9-.3.8.7 1.5.8 1.5.2 0-.8-2.2-2.2-3.4-2.2-.1 0-1.3 1.1-2.6 2.5zM110.4 107.1c-.8 1.4 3.5 4.9 5.2 4.2.8-.3.4-1.2-1.1-2.9-2.5-2.7-3.1-2.9-4.1-1.3zm3.7 2.6c1.3 1.7 1.3 1.7-.6.3-1.1-.8-2.2-1.6-2.4-1.7-.2-.2 0-.3.6-.3s1.7.8 2.4 1.7zM59.8 108.7c-1.6 1.9-1.4 4.3.4 4.3.7 0 .6-.5-.1-1.4-1.4-1.6 1.1-4.2 3-3 .8.4.9.3.5-.4-1-1.7-2-1.5-3.8.5zM86.6 111.3c.3 1 .9 1.5 1.2 1.2.3-.3 0-1.1-.7-1.8-1-.9-1.1-.8-.5.6zM18.4 117.2c-.4.6-.2 1.4.4 1.6.7.2 1 .8.6 1.3-.3.5.1 1.2.9 1.5.9.3 1.3 1.4 1.1 2.7-.4 2.1-.4 2.1.5.2.6-1.4.5-2.3-.6-3.2-.9-.7-1.1-1.3-.4-1.8.6-.3 1.1-1.2 1.1-1.8 0-.7-.4-.6-1 .3-.9 1.3-1.4.7-1.1-1.3.2-1.1-.7-.8-1.5.5zM44.6 117.5c.7 1.8.6 1.8-.9.6-1-.7-1.7-.9-1.7-.3 0 .6.6 1.2 1.3 1.5.9.3.7.9-.5 1.8-1.3 1.1-1.5 1.8-.7 2.9.9 1.3 1 1.2.5-.3-.3-.9-.1-1.7.4-1.7 1.7 0 3.3-4.1 2-5.4-.8-.8-.9-.6-.4.9zM35.5 119.3c.5 2 .4 2.7-.5 2.5-.7-.2-1.5.4-1.7 1.2-.4 1.2-.3 1.2.5.2.5-.8 1.3-1.3 1.8-1.1 1.4.4 1.7-3.2.4-4.5-.9-.8-1-.4-.5 1.7zM105.6 119.5c.4.8 1 1.5 1.5 1.5.4 0 .6-.7.3-1.5-.4-.8-1-1.5-1.5-1.5-.4 0-.6.7-.3 1.5zM23 119.9c0 .5.5 1.3 1 1.6.6.3 1 .2 1-.4 0-.5-.4-1.3-1-1.6-.5-.3-1-.2-1 .4zM39 120.5c-1.1 1.3-1 1.4.4.9.9-.3 1.6-1 1.6-1.5 0-1.3-.6-1.1-2 .6zM48.3 119.8c1 .4 1.8 1.2 1.7 1.7 0 .6.6 1.1 1.4 1.3.9.2 1.6-.1 1.6-.7s-.7-.8-1.5-.4c-1 .3-1.5.1-1.3-.8.2-.7-.6-1.4-1.7-1.6-1.8-.3-1.8-.2-.2.5zM61.5 120c-.8 1.3.5 1.3 2.5 0 1.3-.8 1.3-1-.2-1-.9 0-2 .4-2.3 1zM71 119.9c0 .5.5 1.3 1 1.6.6.3 1 .2 1-.4 0-.5-.4-1.3-1-1.6-.5-.3-1-.2-1 .4zM99.2 120.6c.2.8.7 1.4 1.2 1.4.5-.1 1.3.4 1.8 1.2.8 1 .9 1 .5-.2-.2-.8-1-1.4-1.7-1.2-.8.2-1-.3-.7-1.3.4-.8.2-1.5-.4-1.5-.6 0-.9.7-.7 1.6zM103.2 121c.7 1 1.4 1.8 1.5 1.6.6-.6-.9-3.6-1.8-3.6-.5 0-.4.9.3 2zM57.4 121.1c.1.7 1.3 1.4 2.7 1.6 1.8.2 2 .1.9-.6-.8-.5-1.7-.8-2.1-.5-.4.2-1-.1-1.2-.6-.3-.6-.4-.5-.3.1zM16.8 121.7c.6.2.9 1 .6 1.5-.4.7-.2.8.5.4 1.3-.9.5-2.6-1.2-2.5-.9 0-.8.2.1.6zM29.3 121.7c.4.6.2 1.3-.4 1.5-.7.2-.6.8.3 1.6 1.2.9 1.4.8 1.3-.8-.1-1.1-.5-2.3-1-2.7-.4-.5-.5-.3-.2.4zM45.5 121.9c-.3.5 0 1.3.6 1.7.7.4.9.3.5-.4-.3-.5 0-1.3.6-1.5.9-.4 1-.6.1-.6-.6-.1-1.4.3-1.8.8zM63.5 122c-.4.6.1.7 1.1.3 1.3-.5 1.5-.3.9.7-.5.9-.4 1.1.4.6.6-.4.9-1.2.6-1.7-.8-1.2-2.2-1.2-3 .1zM77.6 122.4c.6 1.5.4 1.7-.6 1.1-.9-.6-1.1-.4-.5.4.5.9 1 1 1.8.2s.7-1.4-.2-2.4c-1-1-1.1-.8-.5.7zM39 124c0 .5.5 1 1.1 1 .5 0 .7-.5.4-1-.3-.6-.8-1-1.1-1-.2 0-.4.4-.4 1zM48.7 124.1c.7.7 1.5 1 1.8.7.3-.3-.2-.9-1.2-1.2-1.4-.6-1.5-.5-.6.5zM55 123.8c0 .5.7.9 1.5.9s1.2-.4.9-.9c-.3-.4-.9-.8-1.5-.8-.5 0-.9.4-.9.8zM79.7 124.5c-.4.8-.3 1.6.1 1.9.4.3.9-.4.9-1.5.2-2.3-.3-2.5-1-.4zM86 124c-.9.6-1 1-.3 1 .6 0 1.5-.5 1.8-1 .8-1.2.4-1.2-1.5 0zM96 124c-.8.5-1 1-.5 1 .6 0 1.7-.5 2.5-1s1.1-1 .5-1c-.5 0-1.7.5-2.5 1zM105.6 124.7c-.4 1.1-.1 1.1 1.4.3 2.4-1.3 2.5-1.7.5-1.7-.8 0-1.6.6-1.9 1.4zM74 125.4c0 .2.8 1 1.8 1.7 1.5 1.3 1.6 1.2.3-.4s-2.1-2.1-2.1-1.3zM99 126.4c.7.7 1.3.7 2 0 .6-.6.3-1-1-1s-1.6.4-1 1zM37.3 127.5c0 .8.4 1.2.9.9.5-.3.6-1 .3-1.5-.9-1.3-1.2-1.1-1.2.6zM60.9 127.7c-1.3 1.6-1.2 1.7.4.4 1.6-1.3 2.1-2.1 1.3-2.1-.2 0-1 .8-1.7 1.7zM85.5 126.9c-.3.5-.2 1.2.3 1.5.5.3.9-.1.9-.9 0-1.7-.3-1.9-1.2-.6zM93 126.3c0 .2.6 1 1.4 1.6 1.1.9 1.6.9 2.2-.1.4-.7.4-1-.1-.6-.4.4-1.4.3-2.2-.3-.7-.6-1.3-.9-1.3-.6zM33.5 128.9c-.3.5-.2 1.2.3 1.5.5.3.9-.1.9-.9 0-1.7-.3-1.9-1.2-.6zM29 129.4c0 .2.7.7 1.6 1 .8.3 1.2.2.9-.4-.6-1-2.5-1.4-2.5-.6zM47 129.5c0 .7 3 1.3 3.4.7.3-.4-.4-.9-1.5-.9-1-.1-1.9 0-1.9.2zM89.6 130.2c.3.4 1.1.5 1.9.1 2.1-.7 1.9-1.2-.4-1-1.1 0-1.8.5-1.5.9zM53 131.9c0 .6.4 1.3 1 1.6.6.3.7-.1.4-.9-.7-1.8-1.4-2.1-1.4-.7zM93.6 112.9c-1.2 1.3-1.4 2.1-.6 2.6.6.3 1 .3.9-.2-.3-1.9.2-2.7 1-1.4.6.9 1.1 1 1.5.2.4-.6.2-1.1-.4-1.1-.6 0-.8-.5-.5-1 1-1.6-.1-1.1-1.9.9z"/></svg>